# xmcd CD database file
#
# Track frame offsets:
#	150
#	21902
#	41830
#	63562
#
# Disc length: 1108 seconds
#
# Revision: 2
# Processed by: cddbd v1.5.2PL0 Copyright (c) Steve Scherf et al.
# Submitted via: CDex 1.70beta2
#
DISCID=33045204
DTITLE=優梨花  - 六本木心中
DYEAR=2012
DGENRE=JPop
TTITLE0=	六本木心中
TTITLE1=MY EVERYTHING
TTITLE2=六本木心中 (Instrumental)
TTITLE3=MY EVERYTHING (Instrumental)
EXTD=YEAR: 2012
EXTT0=
EXTT1=
EXTT2=
EXTT3=
PLAYORDER=
